<?xml version="1.0" encoding="UTF-8" standalone="no"?>
<svg
   xmlns:lucid="lucid"
   xmlns:dc="http://purl.org/dc/elements/1.1/"
   xmlns:cc="http://creativecommons.org/ns#"
   xmlns:rdf="http://www.w3.org/1999/02/22-rdf-syntax-ns#"
   xmlns:svg="http://www.w3.org/2000/svg"
   xmlns="http://www.w3.org/2000/svg"
   xmlns:xlink="http://www.w3.org/1999/xlink"
   xmlns:sodipodi="http://sodipodi.sourceforge.net/DTD/sodipodi-0.dtd"
   xmlns:inkscape="http://www.inkscape.org/namespaces/inkscape"
   width="825.37"
   height="657.97"
   version="1.1"
   id="svg1013"
   sodipodi:docname="problem-new.svg"
   inkscape:version="0.92.4 (unknown)">
  <metadata
     id="metadata1019">
    <rdf:RDF>
      <cc:Work
         rdf:about="">
        <dc:format>image/svg+xml</dc:format>
        <dc:type
           rdf:resource="http://purl.org/dc/dcmitype/StillImage" />
      </cc:Work>
    </rdf:RDF>
  </metadata>
  <defs
     id="defs1017" />
  <sodipodi:namedview
     pagecolor="#ffffff"
     bordercolor="#666666"
     borderopacity="1"
     objecttolerance="10"
     gridtolerance="10"
     guidetolerance="10"
     inkscape:pageopacity="0"
     inkscape:pageshadow="2"
     inkscape:window-width="1855"
     inkscape:window-height="1056"
     id="namedview1015"
     showgrid="false"
     inkscape:zoom="1.3569672"
     inkscape:cx="136.08332"
     inkscape:cy="377.72777"
     inkscape:window-x="65"
     inkscape:window-y="24"
     inkscape:window-maximized="1"
     inkscape:current-layer="g1011" />
  <g
     transform="translate(0 0)"
     lucid:page-tab-id="0_0"
     id="g1011">
    <path
       d="M667.9 397.78c0 30.36-24.63 55-55 55-30.35 0-55-24.64-55-55s24.65-55 55-55c30.37 0 55 24.64 55 55z"
       stroke="#000"
       stroke-opacity="0"
       stroke-width=".32"
       fill="#ffc10e"
       id="path2" />
    <path
       d="M640.74 424.95c-15.4-15.73-40.48-15.62-55.77.22-1.98 1.98 1.1 5.06 3.08 3.08 13.64-14.2 35.86-14.3 49.6-.22 2 1.98 4.96-1.1 3.1-3.08zM604.88 378.86c0 4.73-3.96 8.58-8.7 8.58-4.72 0-8.68-3.85-8.68-8.58 0-4.84 3.96-8.7 8.7-8.7 4.72 0 8.68 3.86 8.68 8.7zM637.44 378.86c0 4.73-3.85 8.58-8.58 8.58s-8.7-3.85-8.7-8.58c0-4.84 3.97-8.7 8.7-8.7 4.73 0 8.58 3.86 8.58 8.7z"
       stroke="#000"
       stroke-opacity="0"
       stroke-width=".32"
       fill="#333"
       id="path4" />
    <path
       d="M222.6 397.78c0 30.36-24.64 55-55 55s-55-24.64-55-55 24.64-55 55-55 55 24.64 55 55z"
       stroke="#000"
       stroke-opacity="0"
       stroke-width=".32"
       fill="#ffc10e"
       id="path6" />
    <path
       d="M195.43 424.95c-15.4-15.73-40.48-15.62-55.77.22-1.98 1.98 1.1 5.06 3.08 3.08 13.64-14.2 35.86-14.3 49.6-.22 2 1.98 4.96-1.1 3.1-3.08zM159.57 378.86c0 4.73-3.96 8.58-8.7 8.58-4.72 0-8.68-3.85-8.68-8.58 0-4.84 3.95-8.7 8.68-8.7 4.73 0 8.7 3.86 8.7 8.7zM192.13 378.86c0 4.73-3.85 8.58-8.58 8.58s-8.7-3.85-8.7-8.58c0-4.84 3.97-8.7 8.7-8.7 4.73 0 8.58 3.86 8.58 8.7z"
       stroke="#000"
       stroke-opacity="0"
       stroke-width=".32"
       fill="#333"
       id="path8" />
    <path
       d="M192.24 386.56s-6.38 7.8-6.38 15.95c0 3.53 2.86 6.4 6.38 6.4s6.38-2.87 6.38-6.4c0-3.95-6.38-15.94-6.38-15.94z"
       stroke="#000"
       stroke-opacity="0"
       stroke-width=".32"
       fill="#a2d4de"
       id="path10" />
    <path
       d="M222.6 58.28c0 30.36-24.64 55-55 55s-55-24.64-55-55 24.64-55 55-55 55 24.64 55 55z"
       stroke="#000"
       stroke-opacity="0"
       stroke-width=".32"
       fill="#ffc10e"
       id="path12" />
    <path
       d="M201.48 58.28c-.22 18.8-15.18 33.66-33.88 34-18.7.32-33.66-15.74-34-34 0-2.75-4.28-2.75-4.28 0 .33 21.12 17.16 37.95 38.28 38.28 21.12.33 37.95-17.7 38.28-38.28 0-2.75-4.3-2.75-4.4 0zM159.57 39.36c0 4.73-3.96 8.58-8.7 8.58-4.72 0-8.68-3.85-8.68-8.58 0-4.84 3.95-8.7 8.68-8.7 4.73 0 8.7 3.86 8.7 8.7zM192.13 39.36c0 4.73-3.85 8.58-8.58 8.58s-8.7-3.85-8.7-8.58c0-4.84 3.97-8.7 8.7-8.7 4.73 0 8.58 3.86 8.58 8.7z"
       stroke="#000"
       stroke-opacity="0"
       stroke-width=".32"
       fill="#333"
       id="path14" />
    <path
       d="M667.9 58.28c0 30.36-24.63 55-55 55-30.35 0-55-24.64-55-55s24.65-55 55-55c30.37 0 55 24.64 55 55z"
       stroke="#000"
       stroke-opacity="0"
       stroke-width=".32"
       fill="#ffc10e"
       id="path16" />
    <path
       d="M604.88 39.36c0 4.73-3.96 8.58-8.7 8.58-4.72 0-8.68-3.85-8.68-8.58 0-4.84 3.96-8.7 8.7-8.7 4.72 0 8.68 3.86 8.68 8.7zM637.44 39.36c0 4.73-3.85 8.58-8.58 8.58s-8.7-3.85-8.7-8.58c0-4.84 3.97-8.7 8.7-8.7 4.73 0 8.58 3.86 8.58 8.7zM582.33 79.07h60.17c2.75 0 2.75-4.3 0-4.3h-60.17c-2.75 0-2.75 4.3 0 4.3z"
       stroke="#000"
       stroke-opacity="0"
       stroke-width=".32"
       fill="#333"
       id="path18" />
    <path
       d="M349.6 191.73H375v-6.63l13.2 11.63-13.2 11.64v-6.64h-25.4z"
       stroke="#000"
       stroke-opacity="0"
       stroke-width="2"
       fill="#0c7cba"
       id="path20"
       style="fill:#204176;fill-opacity:1" />
    <path
       d="M474.75 464.24c-20.13 0-36.44 16.3-36.44 36.43V610c0 20.1 16.32 36.42 36.45 36.42h283.53c20.12 0 36.44-16.3 36.44-36.43V500.66c0-20.12-16.32-36.43-36.44-36.43z"
       stroke="#000"
       stroke-width="2"
       fill="#fff"
       id="path22" />
    <use
       xlink:href="#a"
       transform="matrix(1,0,0,1,446.3108917782399,472.23710904576933) translate(44.88450012916563 26.37768018599844)"
       id="use24" />
    <use
       xlink:href="#b"
       transform="matrix(1,0,0,1,446.3108917782399,472.23710904576933) translate(146.03831051407906 26.37768018599844)"
       id="use26" />
    <use
       xlink:href="#c"
       transform="matrix(1,0,0,1,446.3108917782399,472.23710904576933) translate(232.23164556962024 26.37768018599844)"
       id="use28" />
    <use
       xlink:href="#d"
       transform="matrix(1,0,0,1,446.3108917782399,472.23710904576933) translate(170.5 54.27262550589855)"
       id="use30" />
    <path
       d="M431.1 514.37h363.62v138h-363.6z"
       stroke="#000"
       stroke-opacity="0"
       stroke-width="2"
       fill="#fff"
       fill-opacity="0"
       id="path32" />
    <use
       xlink:href="#e"
       transform="matrix(1,0,0,1,436.105459730374,519.3693386928908) translate(7.2581481481481465 21.333333333333336)"
       id="use34" />
    <use
       xlink:href="#f"
       transform="matrix(1,0,0,1,436.105459730374,519.3693386928908) translate(30.22 21.333333333333336)"
       id="use36" />
    <use
       xlink:href="#g"
       transform="matrix(1,0,0,1,436.105459730374,519.3693386928908) translate(105.70148148148148 21.333333333333336)"
       id="use38" />
    <use
       xlink:href="#h"
       transform="matrix(1,0,0,1,436.105459730374,519.3693386928908) translate(127.92370370370371 21.333333333333336)"
       id="use40" />
    <use
       xlink:href="#i"
       transform="matrix(1,0,0,1,436.105459730374,519.3693386928908) translate(184.14592592592595 21.333333333333336)"
       id="use42" />
    <use
       xlink:href="#e"
       transform="matrix(1,0,0,1,436.105459730374,519.3693386928908) translate(7.2581481481481465 53.333333333333336)"
       id="use44" />
    <use
       xlink:href="#j"
       transform="matrix(1,0,0,1,436.105459730374,519.3693386928908) translate(30.22 53.333333333333336)"
       id="use46" />
    <use
       xlink:href="#k"
       transform="matrix(1,0,0,1,436.105459730374,519.3693386928908) translate(99.1088888888889 53.333333333333336)"
       id="use48" />
    <use
       xlink:href="#l"
       transform="matrix(1,0,0,1,436.105459730374,519.3693386928908) translate(169.3311111111111 53.333333333333336)"
       id="use50" />
    <use
       xlink:href="#m"
       transform="matrix(1,0,0,1,436.105459730374,519.3693386928908) translate(198.96074074074073 53.333333333333336)"
       id="use52" />
    <use
       xlink:href="#l"
       transform="matrix(1,0,0,1,436.105459730374,519.3693386928908) translate(261.0348148148148 53.333333333333336)"
       id="use54" />
    <use
       xlink:href="#n"
       transform="matrix(1,0,0,1,436.105459730374,519.3693386928908) translate(290.6644444444444 53.333333333333336)"
       id="use56" />
    <use
       xlink:href="#e"
       transform="matrix(1,0,0,1,436.105459730374,519.3693386928908) translate(7.2581481481481465 85.33333333333334)"
       id="use58" />
    <use
       xlink:href="#o"
       transform="matrix(1,0,0,1,436.105459730374,519.3693386928908) translate(30.22 85.33333333333334)"
       id="use60" />
    <use
       xlink:href="#p"
       transform="matrix(1,0,0,1,436.105459730374,519.3693386928908) translate(149.99777777777777 85.33333333333334)"
       id="use62" />
    <use
       xlink:href="#q"
       transform="matrix(1,0,0,1,436.105459730374,519.3693386928908) translate(30.22 117.33333333333334)"
       id="use64" />
    <use
       xlink:href="#r"
       transform="matrix(1,0,0,1,436.105459730374,519.3693386928908) translate(82.07185185185186 117.33333333333334)"
       id="use66" />
    <use
       xlink:href="#s"
       transform="matrix(1,0,0,1,436.105459730374,519.3693386928908) translate(222.44222222222226 117.33333333333334)"
       id="use68" />
    <path
       d="M428.8 125.85c-17.47 0-31.63 14.17-31.63 31.63v94.9c0 17.46 14.16 31.62 31.63 31.62h360.43c17.47 0 31.63-14.16 31.63-31.63v-94.9c0-17.45-14.16-31.62-31.63-31.62z"
       stroke="#000"
       stroke-width="2"
       fill="#fff"
       id="path70" />
    <g
       id="g80">
      <use
         xlink:href="#t"
         transform="matrix(1,0,0,1,405.1712698020953,133.85483022624203) translate(57.925393955050424 26.37768018599844)"
         id="use72" />
      <use
         xlink:href="#u"
         transform="matrix(1,0,0,1,405.1712698020953,133.85483022624203) translate(155.66716610694914 26.37768018599844)"
         id="use74" />
      <use
         xlink:href="#v"
         transform="matrix(1,0,0,1,405.1712698020953,133.85483022624203) translate(203.01575820201498 26.37768018599844)"
         id="use76" />
      <use
         xlink:href="#w"
         transform="matrix(1,0,0,1,405.1712698020953,133.85483022624203) translate(204 59.31697235856366)"
         id="use78" />
    </g>
    <path
       d="M392.66 172.1h432.7V284h-432.7z"
       stroke="#000"
       stroke-opacity="0"
       stroke-width="2"
       fill="#fff"
       fill-opacity="0"
       id="path82" />
    <g
       id="g114">
      <use
         xlink:href="#x"
         transform="matrix(1,0,0,1,397.65949903282205,177.11101983852635) translate(7.380421079824337 26.37768018599844)"
         id="use84" />
      <use
         xlink:href="#y"
         transform="matrix(1,0,0,1,397.65949903282205,177.11101983852635) translate(30.22 26.37768018599844)"
         id="use86" />
      <use
         xlink:href="#z"
         transform="matrix(1,0,0,1,397.65949903282205,177.11101983852635) translate(100.16678377680184 26.37768018599844)"
         id="use88" />
      <use
         xlink:href="#A"
         transform="matrix(1,0,0,1,397.65949903282205,177.11101983852635) translate(237.88189615086532 26.37768018599844)"
         id="use90" />
      <use
         xlink:href="#B"
         transform="matrix(1,0,0,1,397.65949903282205,177.11101983852635) translate(382.47357788685076 26.37768018599844)"
         id="use92" />
      <use
         xlink:href="#C"
         transform="matrix(1,0,0,1,397.65949903282205,177.11101983852635) translate(30.22 59.31697235856366)"
         id="use94" />
      <use
         xlink:href="#D"
         transform="matrix(1,0,0,1,397.65949903282205,177.11101983852635) translate(91.58419529837249 59.31697235856366)"
         id="use96" />
      <use
         xlink:href="#E"
         transform="matrix(1,0,0,1,397.65949903282205,177.11101983852635) translate(192.81674502712474 59.31697235856366)"
         id="use98" />
      <use
         xlink:href="#F"
         transform="matrix(1,0,0,1,397.65949903282205,177.11101983852635) translate(251.94999225006453 59.31697235856366)"
         id="use100" />
      <use
         xlink:href="#x"
         transform="matrix(1,0,0,1,397.65949903282205,177.11101983852635) translate(7.380421079824337 92.25626453112888)"
         id="use102" />
      <use
         xlink:href="#y"
         transform="matrix(1,0,0,1,397.65949903282205,177.11101983852635) translate(30.22 92.25626453112888)"
         id="use104" />
      <use
         xlink:href="#G"
         transform="matrix(1,0,0,1,397.65949903282205,177.11101983852635) translate(100.16678377680184 92.25626453112888)"
         id="use106" />
      <use
         xlink:href="#E"
         transform="matrix(1,0,0,1,397.65949903282205,177.11101983852635) translate(166.6752828726427 92.25626453112888)"
         id="use108" />
      <use
         xlink:href="#H"
         transform="matrix(1,0,0,1,397.65949903282205,177.11101983852635) translate(225.80853009558248 92.25626453112888)"
         id="use110" />
      <use
         xlink:href="#I"
         transform="matrix(1,0,0,1,397.65949903282205,177.11101983852635) translate(318.37975200206654 92.25626453112888)"
         id="use112" />
    </g>
    <path
       d="M33.8 125.85c-15.66 0-28.36 12.7-28.36 28.36v85.06c0 15.66 12.7 28.35 28.35 28.35h278.5c15.65 0 28.34-12.68 28.34-28.34V154.2c0-15.65-12.7-28.35-28.35-28.35z"
       stroke="#000"
       stroke-width="2"
       fill="#fff"
       id="path116" />
    <path
       d="M0 125.85h335.2V267.6H0z"
       stroke="#000"
       stroke-opacity="0"
       stroke-width="2"
       fill="#fff"
       fill-opacity="0"
       id="path118" />
    <g
       id="g152">
      <use
         xlink:href="#x"
         transform="matrix(1,0,0,1,5,130.85483022624203) translate(7.380421079824337 26.37768018599844)"
         id="use120" />
      <use
         xlink:href="#J"
         transform="matrix(1,0,0,1,5,130.85483022624203) translate(30.22 26.37768018599844)"
         id="use122" />
      <use
         xlink:href="#K"
         transform="matrix(1,0,0,1,5,130.85483022624203) translate(134.41839834668042 26.37768018599844)"
         id="use124" />
      <use
         xlink:href="#E"
         transform="matrix(1,0,0,1,5,130.85483022624203) translate(157.0165900284164 26.37768018599844)"
         id="use126" />
      <use
         xlink:href="#L"
         transform="matrix(1,0,0,1,5,130.85483022624203) translate(216.1498372513562 26.37768018599844)"
         id="use128" />
      <use
         xlink:href="#x"
         transform="matrix(1,0,0,1,5,130.85483022624203) translate(7.380421079824337 59.31697235856366)"
         id="use130" />
      <use
         xlink:href="#M"
         transform="matrix(1,0,0,1,5,130.85483022624203) translate(30.22 59.31697235856366)"
         id="use132" />
      <use
         xlink:href="#N"
         transform="matrix(1,0,0,1,5,130.85483022624203) translate(116.99075691035905 59.31697235856366)"
         id="use134" />
      <use
         xlink:href="#O"
         transform="matrix(1,0,0,1,5,130.85483022624203) translate(156.67538620511493 59.31697235856366)"
         id="use136" />
      <use
         xlink:href="#x"
         transform="matrix(1,0,0,1,5,130.85483022624203) translate(7.380421079824337 92.25626453112888)"
         id="use138" />
      <use
         xlink:href="#P"
         transform="matrix(1,0,0,1,5,130.85483022624203) translate(30.22 92.25626453112888)"
         id="use140" />
      <use
         xlink:href="#Q"
         transform="matrix(1,0,0,1,5,130.85483022624203) translate(148.3815086540945 92.25626453112888)"
         id="use142" />
      <use
         xlink:href="#R"
         transform="matrix(1,0,0,1,5,130.85483022624203) translate(202.081741152157 92.25626453112888)"
         id="use144" />
      <use
         xlink:href="#S"
         transform="matrix(1,0,0,1,5,130.85483022624203) translate(30.22 125.1955567036941)"
         id="use146" />
      <use
         xlink:href="#T"
         transform="matrix(1,0,0,1,5,130.85483022624203) translate(61.269547920433986 125.1955567036941)"
         id="use148" />
      <use
         xlink:href="#U"
         transform="matrix(1,0,0,1,5,130.85483022624203) translate(167.69889434254708 125.1955567036941)"
         id="use150" />
    </g>
    <g
       id="g156"
       style="fill:#204176;fill-opacity:1">
      <path
         d="M617.9 292.7v25.4h6.64l-11.63 13.22-11.62-13.2h6.63v-25.4z"
         stroke="#000"
         stroke-opacity="0"
         stroke-width="2"
         fill="#0c7cba"
         id="path154"
         style="fill:#204176;fill-opacity:1" />
    </g>
    <path
       d="M43.96 464.24c-20.48 0-37.07 16.6-37.07 37.07v111.22c0 20.48 16.58 37.07 37.06 37.07h268.57c20.47 0 37.07-16.6 37.07-37.08v-111.2c0-20.5-16.6-37.08-37.07-37.08z"
       stroke="#000"
       stroke-width="2"
       fill="#fff"
       id="path158" />
    <g
       id="g168">
      <use
         xlink:href="#V"
         transform="matrix(1,0,0,1,14.887200610352181,472.23710904576933) translate(10.29948333763889 26.37768018599844)"
         id="use160" />
      <use
         xlink:href="#b"
         transform="matrix(1,0,0,1,14.887200610352181,472.23710904576933) translate(166.6233273056058 26.37768018599844)"
         id="use162" />
      <use
         xlink:href="#c"
         transform="matrix(1,0,0,1,14.887200610352181,472.23710904576933) translate(252.816662361147 26.37768018599844)"
         id="use164" />
      <use
         xlink:href="#d"
         transform="matrix(1,0,0,1,14.887200610352181,472.23710904576933) translate(163.5 54.27262550589855)"
         id="use166" />
    </g>
    <path
       d="M1.68 511.42H344.4v144.22H1.68z"
       stroke="#000"
       stroke-opacity="0"
       stroke-width="2"
       fill="#fff"
       fill-opacity="0"
       id="path170" />
    <g
       id="g206">
      <use
         xlink:href="#W"
         transform="matrix(1,0,0,1,6.684655961406804,516.4195143303567) translate(7.380421079824337 26.37768018599844)"
         id="use172" />
      <use
         xlink:href="#X"
         transform="matrix(1,0,0,1,6.684655961406804,516.4195143303567) translate(30.22 26.37768018599844)"
         id="use174" />
      <use
         xlink:href="#Y"
         transform="matrix(1,0,0,1,6.684655961406804,516.4195143303567) translate(69.19597520020665 26.37768018599844)"
         id="use176" />
      <use
         xlink:href="#Z"
         transform="matrix(1,0,0,1,6.684655961406804,516.4195143303567) translate(174.470477912684 26.37768018599844)"
         id="use178" />
      <use
         xlink:href="#aa"
         transform="matrix(1,0,0,1,6.684655961406804,516.4195143303567) translate(277.6190183415137 26.37768018599844)"
         id="use180" />
      <use
         xlink:href="#E"
         transform="matrix(1,0,0,1,6.684655961406804,516.4195143303567) translate(30.22 59.31697235856366)"
         id="use182" />
      <use
         xlink:href="#ab"
         transform="matrix(1,0,0,1,6.684655961406804,516.4195143303567) translate(89.35324722293979 59.31697235856366)"
         id="use184" />
      <use
         xlink:href="#ac"
         transform="matrix(1,0,0,1,6.684655961406804,516.4195143303567) translate(193.99783518470673 59.31697235856366)"
         id="use186" />
      <use
         xlink:href="#W"
         transform="matrix(1,0,0,1,6.684655961406804,516.4195143303567) translate(7.380421079824337 92.25626453112888)"
         id="use188" />
      <use
         xlink:href="#ad"
         transform="matrix(1,0,0,1,6.684655961406804,516.4195143303567) translate(30.22 92.25626453112888)"
         id="use190" />
      <use
         xlink:href="#ae"
         transform="matrix(1,0,0,1,6.684655961406804,516.4195143303567) translate(113.00129682252644 92.25626453112888)"
         id="use192" />
      <use
         xlink:href="#af"
         transform="matrix(1,0,0,1,6.684655961406804,516.4195143303567) translate(177.88251614569873 92.25626453112888)"
         id="use194" />
      <use
         xlink:href="#ag"
         transform="matrix(1,0,0,1,6.684655961406804,516.4195143303567) translate(257.40925342288807 92.25626453112888)"
         id="use196" />
      <use
         xlink:href="#ah"
         transform="matrix(1,0,0,1,6.684655961406804,516.4195143303567) translate(288.4588013433221 92.25626453112888)"
         id="use198" />
      <use
         xlink:href="#ai"
         transform="matrix(1,0,0,1,6.684655961406804,516.4195143303567) translate(30.22 125.1955567036941)"
         id="use200" />
      <use
         xlink:href="#aj"
         transform="matrix(1,0,0,1,6.684655961406804,516.4195143303567) translate(142.26608628261425 125.1955567036941)"
         id="use202" />
      <use
         xlink:href="#ak"
         transform="matrix(1,0,0,1,6.684655961406804,516.4195143303567) translate(207.48850942908803 125.1955567036941)"
         id="use204" />
    </g>
    <g
       id="g210"
       style="fill:#204176;fill-opacity:1">
      <path
         d="M409.66 565.5h-25.4v6.62l-13.2-11.63 13.2-11.65v6.64h25.4z"
         stroke="#000"
         stroke-opacity="0"
         stroke-width="2"
         fill="#0c7cba"
         id="path208"
         style="fill:#204176;fill-opacity:1" />
    </g>
    <defs
       id="defs1009">
      <path
         d="M973-712h124L845 0H740L561-512 380 0H275L24-712h131l178 531 185-531h92l181 535"
         id="al" />
      <path
         d="M187-416c23-72 111-120 203-93l-1 114c-100-41-197 14-197 122V0H68c-3-166 7-352-8-505h117"
         id="am" />
      <path
         d="M68 0v-505h124V0H68zm-8-734h139v123H60v-123"
         id="an" />
      <path
         d="M280 7C164 7 101-62 102-179v-232H5v-94h97v-123l125-42v165h134v94H227v226c-5 80 63 104 133 81v99c-22 8-49 12-80 12"
         id="ao" />
      <path
         d="M186-422c31-56 89-95 171-96 121 0 181 69 181 208V0H413v-304c0-75-24-114-94-115-76-1-127 56-127 133V0H68c-3-166 7-352-8-505h117"
         id="ap" />
      <path
         d="M266-518c78 0 138 36 166 89v-76h124v489c0 161-92 241-256 240-78 0-147-16-206-49l20-95c61 32 122 48 183 48 90 0 135-45 135-134v-100c-28 51-89 92-166 92C121-19 40-118 40-266s81-247 226-252zm33 406c86 0 134-64 133-154 1-91-46-154-133-154-86 0-134 64-133 154-1 90 47 154 133 154"
         id="aq" />
      <g
         id="a">
        <use
           transform="matrix(0.026246447946267105,0,0,0.026246447946267105,0,0)"
           xlink:href="#al"
           id="use218" />
        <use
           transform="matrix(0.026246447946267105,0,0,0.026246447946267105,27.847481270989398,0)"
           xlink:href="#am"
           id="use220" />
        <use
           transform="matrix(0.026246447946267105,0,0,0.026246447946267105,38.136088865926105,0)"
           xlink:href="#an"
           id="use222" />
        <use
           transform="matrix(0.026246447946267105,0,0,0.026246447946267105,44.98641177990182,0)"
           xlink:href="#ao"
           id="use224" />
        <use
           transform="matrix(0.026246447946267105,0,0,0.026246447946267105,54.93381555153705,0)"
           xlink:href="#an"
           id="use226" />
        <use
           transform="matrix(0.026246447946267105,0,0,0.026246447946267105,61.78413846551277,0)"
           xlink:href="#ap"
           id="use228" />
        <use
           transform="matrix(0.026246447946267105,0,0,0.026246447946267105,77.61074657711183,0)"
           xlink:href="#aq"
           id="use230" />
      </g>
      <path
         d="M629-505c0 134-101 208-243 208H206V0H77v-712h309c143-2 243 72 243 207zm-122 1c0-138-170-104-301-108v215c131-3 301 29 301-107"
         id="ar" />
      <path
         d="M68 0v-736h124V0H68"
         id="as" />
      <path
         d="M281-92c74 1 121-56 121-132v-281h126V0H406v-78C377-27 326 7 250 8 127 8 65-61 65-200v-305h124v306c0 70 25 106 92 107"
         id="at" />
      <g
         id="b">
        <use
           transform="matrix(0.026246447946267105,0,0,0.026246447946267105,0,0)"
           xlink:href="#ar"
           id="use236" />
        <use
           transform="matrix(0.026246447946267105,0,0,0.026246447946267105,17.480134332213893,0)"
           xlink:href="#as"
           id="use238" />
        <use
           transform="matrix(0.026246447946267105,0,0,0.026246447946267105,24.33045724618961,0)"
           xlink:href="#at"
           id="use240" />
        <use
           transform="matrix(0.026246447946267105,0,0,0.026246447946267105,39.97334022216481,0)"
           xlink:href="#aq"
           id="use242" />
        <use
           transform="matrix(0.026246447946267105,0,0,0.026246447946267105,56.32487729268922,0)"
           xlink:href="#an"
           id="use244" />
        <use
           transform="matrix(0.026246447946267105,0,0,0.026246447946267105,63.17520020666493,0)"
           xlink:href="#ap"
           id="use246" />
      </g>
      <path
         d="M400 9C178 4 54-132 54-357c0-224 124-360 346-364 100 0 189 35 241 85l-42 94c-56-45-108-72-197-74-146 1-218 104-216 259-1 156 68 260 216 261 88-2 141-29 197-74l42 94C589-26 500 9 400 9"
         id="au" />
      <path
         d="M297 8C135 8 40-91 40-255s95-263 257-263c161 0 255 100 255 263S458 8 297 8zm-1-98c93-1 132-65 131-165 1-98-39-164-130-166-92 1-132 67-131 166-1 100 38 163 130 165"
         id="av" />
      <path
         d="M264-518c76 0 134 35 162 86v-304h125V0H428v-81C400-29 341 8 264 8 117 2 40-105 40-257s77-256 224-261zm33 428c90-1 132-69 131-165 1-96-40-164-130-165-90 1-133 67-132 163-1 96 41 166 131 167"
         id="aw" />
      <path
         d="M285-518c149 0 233 111 225 272H162c5 102 47 157 149 158 55 0 107-18 154-54l36 86C458-20 382 8 306 8 144 10 38-92 40-254c4-157 91-264 245-264zm116 205c-7-70-40-114-113-115-73 1-112 47-122 115h235"
         id="ax" />
      <g
         id="c">
        <use
           transform="matrix(0.026246447946267105,0,0,0.026246447946267105,0,0)"
           xlink:href="#au"
           id="use253" />
        <use
           transform="matrix(0.026246447946267105,0,0,0.026246447946267105,17.716352363730294,0)"
           xlink:href="#av"
           id="use255" />
        <use
           transform="matrix(0.026246447946267105,0,0,0.026246447946267105,33.25424954792042,0)"
           xlink:href="#aw"
           id="use257" />
        <use
           transform="matrix(0.026246447946267105,0,0,0.026246447946267105,49.50080082665976,0)"
           xlink:href="#ax"
           id="use259" />
      </g>
      <path
         d="M54-68v-132l118 66"
         id="ay" />
      <use
         transform="matrix(0.07407407407407408,0,0,0.07407407407407408,0,0)"
         xlink:href="#ay"
         id="e" />
      <path
         d="M30 0v-248h33v221h125V0H30"
         id="az" />
      <path
         d="M100-194c63 0 86 42 84 106H49c0 40 14 67 53 68 26 1 43-12 49-29l28 8c-11 28-37 45-77 45C44 4 14-33 15-96c1-61 26-98 85-98zm52 81c6-60-76-77-97-28-3 7-6 17-6 28h103"
         id="aA" />
      <path
         d="M141-36C126-15 110 5 73 4 37 3 15-17 15-53c-1-64 63-63 125-63 3-35-9-54-41-54-24 1-41 7-42 31l-33-3c5-37 33-52 76-52 45 0 72 20 72 64v82c-1 20 7 32 28 27v20c-31 9-61-2-59-35zM48-53c0 20 12 33 32 33 41-3 63-29 60-74-43 2-92-5-92 41"
         id="aB" />
      <path
         d="M114-163C36-179 61-72 57 0H25l-1-190h30c1 12-1 29 2 39 6-27 23-49 58-41v29"
         id="aC" />
      <path
         d="M117-194c89-4 53 116 60 194h-32v-121c0-31-8-49-39-48C34-167 62-67 57 0H25l-1-190h30c1 10-1 24 2 32 11-22 29-35 61-36"
         id="aD" />
      <g
         id="f">
        <use
           transform="matrix(0.07407407407407408,0,0,0.07407407407407408,0,0)"
           xlink:href="#az"
           id="use269" />
        <use
           transform="matrix(0.07407407407407408,0,0,0.07407407407407408,14.814814814814817,0)"
           xlink:href="#aA"
           id="use271" />
        <use
           transform="matrix(0.07407407407407408,0,0,0.07407407407407408,29.629629629629633,0)"
           xlink:href="#aB"
           id="use273" />
        <use
           transform="matrix(0.07407407407407408,0,0,0.07407407407407408,44.44444444444445,0)"
           xlink:href="#aC"
           id="use275" />
        <use
           transform="matrix(0.07407407407407408,0,0,0.07407407407407408,53.25925925925927,0)"
           xlink:href="#aD"
           id="use277" />
      </g>
      <use
         transform="matrix(0.07407407407407408,0,0,0.07407407407407408,0,0)"
         xlink:href="#aB"
         id="g" />
      <path
         d="M206 0h-36l-40-164L89 0H53L-1-190h32L70-26l43-164h34l41 164 42-164h31"
         id="aE" />
      <g
         id="h">
        <use
           transform="matrix(0.07407407407407408,0,0,0.07407407407407408,0,0)"
           xlink:href="#aD"
           id="use282" />
        <use
           transform="matrix(0.07407407407407408,0,0,0.07407407407407408,14.814814814814817,0)"
           xlink:href="#aA"
           id="use284" />
        <use
           transform="matrix(0.07407407407407408,0,0,0.07407407407407408,29.629629629629633,0)"
           xlink:href="#aE"
           id="use286" />
      </g>
      <path
         d="M101-234c-31-9-42 10-38 44h38v23H63V0H32v-167H5v-23h27c-7-52 17-82 69-68v24"
         id="aF" />
      <path
         d="M210-169c-67 3-38 105-44 169h-31v-121c0-29-5-50-35-48C34-165 62-65 56 0H25l-1-190h30c1 10-1 24 2 32 10-44 99-50 107 0 11-21 27-35 58-36 85-2 47 119 55 194h-31v-121c0-29-5-49-35-48"
         id="aG" />
      <path
         d="M100-194c62-1 85 37 85 99 1 63-27 99-86 99S16-35 15-95c0-66 28-99 85-99zM99-20c44 1 53-31 53-75 0-43-8-75-51-75s-53 32-53 75 10 74 51 75"
         id="aH" />
      <path
         d="M143 0L79-87 56-68V0H24v-261h32v163l83-92h37l-77 82L181 0h-38"
         id="aI" />
      <g
         id="i">
        <use
           transform="matrix(0.07407407407407408,0,0,0.07407407407407408,0,0)"
           xlink:href="#aF"
           id="use293" />
        <use
           transform="matrix(0.07407407407407408,0,0,0.07407407407407408,7.407407407407408,0)"
           xlink:href="#aC"
           id="use295" />
        <use
           transform="matrix(0.07407407407407408,0,0,0.07407407407407408,16.222222222222225,0)"
           xlink:href="#aB"
           id="use297" />
        <use
           transform="matrix(0.07407407407407408,0,0,0.07407407407407408,31.03703703703704,0)"
           xlink:href="#aG"
           id="use299" />
        <use
           transform="matrix(0.07407407407407408,0,0,0.07407407407407408,53.18518518518519,0)"
           xlink:href="#aA"
           id="use301" />
        <use
           transform="matrix(0.07407407407407408,0,0,0.07407407407407408,68,0)"
           xlink:href="#aE"
           id="use303" />
        <use
           transform="matrix(0.07407407407407408,0,0,0.07407407407407408,87.18518518518519,0)"
           xlink:href="#aH"
           id="use305" />
        <use
           transform="matrix(0.07407407407407408,0,0,0.07407407407407408,102,0)"
           xlink:href="#aC"
           id="use307" />
        <use
           transform="matrix(0.07407407407407408,0,0,0.07407407407407408,110.81481481481481,0)"
           xlink:href="#aI"
           id="use309" />
      </g>
      <path
         d="M266 0h-40l-56-210L115 0H75L2-248h35L96-30l15-64 43-154h32l59 218 59-218h35"
         id="aJ" />
      <path
         d="M24-231v-30h32v30H24zM24 0v-190h32V0H24"
         id="aK" />
      <path
         d="M59-47c-2 24 18 29 38 22v24C64 9 27 4 27-40v-127H5v-23h24l9-43h21v43h35v23H59v120"
         id="aL" />
      <g
         id="j">
        <use
           transform="matrix(0.07407407407407408,0,0,0.07407407407407408,0,0)"
           xlink:href="#aJ"
           id="use315" />
        <use
           transform="matrix(0.07407407407407408,0,0,0.07407407407407408,24.592592592592595,0)"
           xlink:href="#aC"
           id="use317" />
        <use
           transform="matrix(0.07407407407407408,0,0,0.07407407407407408,33.40740740740741,0)"
           xlink:href="#aK"
           id="use319" />
        <use
           transform="matrix(0.07407407407407408,0,0,0.07407407407407408,39.25925925925927,0)"
           xlink:href="#aL"
           id="use321" />
        <use
           transform="matrix(0.07407407407407408,0,0,0.07407407407407408,46.66666666666667,0)"
           xlink:href="#aA"
           id="use323" />
      </g>
      <path
         d="M27 0v-27h64v-190l-56 39v-29l58-41h29v221h61V0H27"
         id="aM" />
      <path
         d="M101-251c68 0 85 55 85 127S166 4 100 4C33 4 14-52 14-124c0-73 17-127 87-127zm-1 229c47 0 54-49 54-102s-4-102-53-102c-51 0-55 48-55 102 0 53 5 102 54 102"
         id="aN" />
      <path
         d="M47-170H22l-4-78h33"
         id="aO" />
      <path
         d="M135-143c-3-34-86-38-87 0 15 53 115 12 119 90S17 21 10-45l28-5c4 36 97 45 98 0-10-56-113-15-118-90-4-57 82-63 122-42 12 7 21 19 24 35"
         id="aP" />
      <g
         id="k">
        <use
           transform="matrix(0.07407407407407408,0,0,0.07407407407407408,0,0)"
           xlink:href="#aM"
           id="use330" />
        <use
           transform="matrix(0.07407407407407408,0,0,0.07407407407407408,14.814814814814817,0)"
           xlink:href="#aN"
           id="use332" />
        <use
           transform="matrix(0.07407407407407408,0,0,0.07407407407407408,29.629629629629633,0)"
           xlink:href="#aN"
           id="use334" />
        <use
           transform="matrix(0.07407407407407408,0,0,0.07407407407407408,44.44444444444445,0)"
           xlink:href="#aO"
           id="use336" />
        <use
           transform="matrix(0.07407407407407408,0,0,0.07407407407407408,49.48148148148149,0)"
           xlink:href="#aP"
           id="use338" />
      </g>
      <g
         id="l">
        <use
           transform="matrix(0.07407407407407408,0,0,0.07407407407407408,0,0)"
           xlink:href="#aH"
           id="use341" />
        <use
           transform="matrix(0.07407407407407408,0,0,0.07407407407407408,14.814814814814817,0)"
           xlink:href="#aF"
           id="use343" />
      </g>
      <path
         d="M24 0v-261h32V0H24"
         id="aQ" />
      <g
         id="m">
        <use
           transform="matrix(0.07407407407407408,0,0,0.07407407407407408,0,0)"
           xlink:href="#aQ"
           id="use347" />
        <use
           transform="matrix(0.07407407407407408,0,0,0.07407407407407408,5.851851851851853,0)"
           xlink:href="#aK"
           id="use349" />
        <use
           transform="matrix(0.07407407407407408,0,0,0.07407407407407408,11.703703703703706,0)"
           xlink:href="#aD"
           id="use351" />
        <use
           transform="matrix(0.07407407407407408,0,0,0.07407407407407408,26.518518518518523,0)"
           xlink:href="#aA"
           id="use353" />
        <use
           transform="matrix(0.07407407407407408,0,0,0.07407407407407408,41.333333333333336,0)"
           xlink:href="#aP"
           id="use355" />
      </g>
      <path
         d="M96-169c-40 0-48 33-48 73s9 75 48 75c24 0 41-14 43-38l32 2c-6 37-31 61-74 61-59 0-76-41-82-99-10-93 101-131 147-64 4 7 5 14 7 22l-32 3c-4-21-16-35-41-35"
         id="aR" />
      <path
         d="M85-194c31 0 48 13 60 33l-1-100h32l1 261h-30c-2-10 0-23-3-31C134-8 116 4 85 4 32 4 16-35 15-94c0-66 23-100 70-100zm9 24c-40 0-46 34-46 75 0 40 6 74 45 74 42 0 51-32 51-76 0-42-9-74-50-73"
         id="aS" />
      <g
         id="n">
        <use
           transform="matrix(0.07407407407407408,0,0,0.07407407407407408,0,0)"
           xlink:href="#aR"
           id="use360" />
        <use
           transform="matrix(0.07407407407407408,0,0,0.07407407407407408,13.333333333333336,0)"
           xlink:href="#aH"
           id="use362" />
        <use
           transform="matrix(0.07407407407407408,0,0,0.07407407407407408,28.148148148148152,0)"
           xlink:href="#aS"
           id="use364" />
        <use
           transform="matrix(0.07407407407407408,0,0,0.07407407407407408,42.96296296296297,0)"
           xlink:href="#aA"
           id="use366" />
      </g>
      <path
         d="M212-179c-10-28-35-45-73-45-59 0-87 40-87 99 0 60 29 101 89 101 43 0 62-24 78-52l27 14C228-24 195 4 139 4 59 4 22-46 18-125c-6-104 99-153 187-111 19 9 31 26 39 46"
         id="aT" />
      <path
         d="M115-194c55 1 70 41 70 98S169 2 115 4C84 4 66-9 55-30l1 105H24l-1-265h31l2 30c10-21 28-34 59-34zm-8 174c40 0 45-34 45-75s-6-73-45-74c-42 0-51 32-51 76 0 43 10 73 51 73"
         id="aU" />
      <path
         d="M141 0L90-78 38 0H4l68-98-65-92h35l48 74 47-74h35l-64 92 68 98h-35"
         id="aV" />
      <path
         d="M68-38c1 34 0 65-14 84H32c9-13 17-26 17-46H33v-38h35"
         id="aW" />
      <g
         id="o">
        <use
           transform="matrix(0.07407407407407408,0,0,0.07407407407407408,0,0)"
           xlink:href="#aT"
           id="use373" />
        <use
           transform="matrix(0.07407407407407408,0,0,0.07407407407407408,19.185185185185187,0)"
           xlink:href="#aH"
           id="use375" />
        <use
           transform="matrix(0.07407407407407408,0,0,0.07407407407407408,34,0)"
           xlink:href="#aG"
           id="use377" />
        <use
           transform="matrix(0.07407407407407408,0,0,0.07407407407407408,56.14814814814815,0)"
           xlink:href="#aU"
           id="use379" />
        <use
           transform="matrix(0.07407407407407408,0,0,0.07407407407407408,70.96296296296296,0)"
           xlink:href="#aQ"
           id="use381" />
        <use
           transform="matrix(0.07407407407407408,0,0,0.07407407407407408,76.81481481481481,0)"
           xlink:href="#aA"
           id="use383" />
        <use
           transform="matrix(0.07407407407407408,0,0,0.07407407407407408,91.62962962962962,0)"
           xlink:href="#aV"
           id="use385" />
        <use
           transform="matrix(0.07407407407407408,0,0,0.07407407407407408,104.96296296296296,0)"
           xlink:href="#aW"
           id="use387" />
      </g>
      <path
         d="M16-82v-28h88v28H16"
         id="aX" />
      <path
         d="M84 4C-5 8 30-112 23-190h32v120c0 31 7 50 39 49 72-2 45-101 50-169h31l1 190h-30c-1-10 1-25-2-33-11 22-28 36-60 37"
         id="aY" />
      <path
         d="M177-190C167-65 218 103 67 71c-23-6-38-20-44-43l32-5c15 47 100 32 89-28v-30C133-14 115 1 83 1 29 1 15-40 15-95c0-56 16-97 71-98 29-1 48 16 59 35 1-10 0-23 2-32h30zM94-22c36 0 50-32 50-73 0-42-14-75-50-75-39 0-46 34-46 75s6 73 46 73"
         id="aZ" />
      <g
         id="p">
        <use
           transform="matrix(0.07407407407407408,0,0,0.07407407407407408,0,0)"
           xlink:href="#aL"
           id="use393" />
        <use
           transform="matrix(0.07407407407407408,0,0,0.07407407407407408,7.407407407407408,0)"
           xlink:href="#aK"
           id="use395" />
        <use
           transform="matrix(0.07407407407407408,0,0,0.07407407407407408,13.259259259259261,0)"
           xlink:href="#aG"
           id="use397" />
        <use
           transform="matrix(0.07407407407407408,0,0,0.07407407407407408,35.40740740740741,0)"
           xlink:href="#aA"
           id="use399" />
        <use
           transform="matrix(0.07407407407407408,0,0,0.07407407407407408,50.22222222222223,0)"
           xlink:href="#aX"
           id="use401" />
        <use
           transform="matrix(0.07407407407407408,0,0,0.07407407407407408,59.037037037037045,0)"
           xlink:href="#aR"
           id="use403" />
        <use
           transform="matrix(0.07407407407407408,0,0,0.07407407407407408,72.37037037037038,0)"
           xlink:href="#aH"
           id="use405" />
        <use
           transform="matrix(0.07407407407407408,0,0,0.07407407407407408,87.18518518518519,0)"
           xlink:href="#aD"
           id="use407" />
        <use
           transform="matrix(0.07407407407407408,0,0,0.07407407407407408,102,0)"
           xlink:href="#aP"
           id="use409" />
        <use
           transform="matrix(0.07407407407407408,0,0,0.07407407407407408,115.33333333333334,0)"
           xlink:href="#aY"
           id="use411" />
        <use
           transform="matrix(0.07407407407407408,0,0,0.07407407407407408,130.14814814814815,0)"
           xlink:href="#aG"
           id="use413" />
        <use
           transform="matrix(0.07407407407407408,0,0,0.07407407407407408,152.2962962962963,0)"
           xlink:href="#aK"
           id="use415" />
        <use
           transform="matrix(0.07407407407407408,0,0,0.07407407407407408,158.14814814814818,0)"
           xlink:href="#aD"
           id="use417" />
        <use
           transform="matrix(0.07407407407407408,0,0,0.07407407407407408,172.96296296296296,0)"
           xlink:href="#aZ"
           id="use419" />
      </g>
      <g
         id="q">
        <use
           transform="matrix(0.07407407407407408,0,0,0.07407407407407408,0,0)"
           xlink:href="#aB"
           id="use422" />
        <use
           transform="matrix(0.07407407407407408,0,0,0.07407407407407408,14.814814814814817,0)"
           xlink:href="#aD"
           id="use424" />
        <use
           transform="matrix(0.07407407407407408,0,0,0.07407407407407408,29.629629629629633,0)"
           xlink:href="#aS"
           id="use426" />
      </g>
      <g
         id="r">
        <use
           transform="matrix(0.07407407407407408,0,0,0.07407407407407408,0,0)"
           xlink:href="#aA"
           id="use429" />
        <use
           transform="matrix(0.07407407407407408,0,0,0.07407407407407408,14.814814814814817,0)"
           xlink:href="#aC"
           id="use431" />
        <use
           transform="matrix(0.07407407407407408,0,0,0.07407407407407408,23.629629629629633,0)"
           xlink:href="#aC"
           id="use433" />
        <use
           transform="matrix(0.07407407407407408,0,0,0.07407407407407408,32.44444444444445,0)"
           xlink:href="#aH"
           id="use435" />
        <use
           transform="matrix(0.07407407407407408,0,0,0.07407407407407408,47.25925925925927,0)"
           xlink:href="#aC"
           id="use437" />
        <use
           transform="matrix(0.07407407407407408,0,0,0.07407407407407408,56.07407407407408,0)"
           xlink:href="#aX"
           id="use439" />
        <use
           transform="matrix(0.07407407407407408,0,0,0.07407407407407408,64.8888888888889,0)"
           xlink:href="#aU"
           id="use441" />
        <use
           transform="matrix(0.07407407407407408,0,0,0.07407407407407408,79.70370370370374,0)"
           xlink:href="#aC"
           id="use443" />
        <use
           transform="matrix(0.07407407407407408,0,0,0.07407407407407408,88.51851851851853,0)"
           xlink:href="#aH"
           id="use445" />
        <use
           transform="matrix(0.07407407407407408,0,0,0.07407407407407408,103.33333333333334,0)"
           xlink:href="#aD"
           id="use447" />
        <use
           transform="matrix(0.07407407407407408,0,0,0.07407407407407408,118.14814814814815,0)"
           xlink:href="#aA"
           id="use449" />
      </g>
      <g
         id="s">
        <use
           transform="matrix(0.07407407407407408,0,0,0.07407407407407408,0,0)"
           xlink:href="#aU"
           id="use452" />
        <use
           transform="matrix(0.07407407407407408,0,0,0.07407407407407408,14.814814814814817,0)"
           xlink:href="#aC"
           id="use454" />
        <use
           transform="matrix(0.07407407407407408,0,0,0.07407407407407408,23.629629629629633,0)"
           xlink:href="#aH"
           id="use456" />
        <use
           transform="matrix(0.07407407407407408,0,0,0.07407407407407408,38.44444444444445,0)"
           xlink:href="#aR"
           id="use458" />
        <use
           transform="matrix(0.07407407407407408,0,0,0.07407407407407408,51.777777777777786,0)"
           xlink:href="#aA"
           id="use460" />
        <use
           transform="matrix(0.07407407407407408,0,0,0.07407407407407408,66.59259259259261,0)"
           xlink:href="#aP"
           id="use462" />
        <use
           transform="matrix(0.07407407407407408,0,0,0.07407407407407408,79.92592592592595,0)"
           xlink:href="#aP"
           id="use464" />
      </g>
      <path
         d="M244 0v-606H12v-106h595v106H374V0H244"
         id="ba" />
      <path
         d="M462-144C466 45 140 38 35-56l35-88c54 40 116 60 185 60 68 0 125-49 77-94-26-25-98-32-142-42-92-21-138-67-138-141-2-184 293-192 400-93l-37 85c-51-37-103-56-156-56-65 0-117 47-77 95 63 40 202 40 246 94 21 26 34 54 34 92"
         id="bb" />
      <g
         id="t">
        <use
           transform="matrix(0.026246447946267105,0,0,0.026246447946267105,0,0)"
           xlink:href="#ba"
           id="use469" />
        <use
           transform="matrix(0.026246447946267105,0,0,0.026246447946267105,14.173081890984239,0)"
           xlink:href="#ax"
           id="use471" />
        <use
           transform="matrix(0.026246447946267105,0,0,0.026246447946267105,28.556135365538612,0)"
           xlink:href="#bb"
           id="use473" />
        <use
           transform="matrix(0.026246447946267105,0,0,0.026246447946267105,41.574373546887095,0)"
           xlink:href="#ao"
           id="use475" />
        <use
           transform="matrix(0.026246447946267105,0,0,0.026246447946267105,51.521777318522325,0)"
           xlink:href="#an"
           id="use477" />
        <use
           transform="matrix(0.026246447946267105,0,0,0.026246447946267105,58.37210023249804,0)"
           xlink:href="#ap"
           id="use479" />
        <use
           transform="matrix(0.026246447946267105,0,0,0.026246447946267105,74.1987083440971,0)"
           xlink:href="#aq"
           id="use481" />
      </g>
      <path
         d="M192-432c31-50 88-86 165-86 121 0 181 69 181 208V0H413v-304c0-75-24-114-94-115-76-1-127 56-127 133V0H68v-736h124v304"
         id="bc" />
      <g
         id="u">
        <use
           transform="matrix(0.026246447946267105,0,0,0.026246447946267105,0,0)"
           xlink:href="#ao"
           id="use485" />
        <use
           transform="matrix(0.026246447946267105,0,0,0.026246447946267105,9.947403771635233,0)"
           xlink:href="#bc"
           id="use487" />
        <use
           transform="matrix(0.026246447946267105,0,0,0.026246447946267105,25.774011883234298,0)"
           xlink:href="#ax"
           id="use489" />
      </g>
      <path
         d="M356-518c147 6 223 114 223 266S503 3 356 8c-77 0-136-37-164-89v297H68c-4-238 9-496-8-721h117l10 87c24-59 88-100 169-100zM322-90c90-1 132-66 131-162 1-96-40-167-130-168-92 1-133 68-132 166-1 97 40 163 131 164"
         id="bd" />
      <path
         d="M546-505L311 34C261 152 191 204 56 228l-28-96c106-21 146-60 180-150L-2-505h131l145 363 148-363h124"
         id="be" />
      <path
         d="M664-518c124 2 170 77 170 208V0H709v-306c-1-73-17-111-84-113-74 0-111 59-111 137V0H389v-306c0-72-19-111-85-113-74 0-112 59-112 137V0H68c-3-166 7-352-8-505h117l9 80c26-55 81-92 159-93 77 0 128 32 151 96 28-55 89-96 168-96"
         id="bf" />
      <g
         id="v">
        <use
           transform="matrix(0.026246447946267105,0,0,0.026246447946267105,0,0)"
           xlink:href="#aw"
           id="use495" />
        <use
           transform="matrix(0.026246447946267105,0,0,0.026246447946267105,16.24655127873934,0)"
           xlink:href="#ax"
           id="use497" />
        <use
           transform="matrix(0.026246447946267105,0,0,0.026246447946267105,30.629604753293712,0)"
           xlink:href="#bd"
           id="use499" />
        <use
           transform="matrix(0.026246447946267105,0,0,0.026246447946267105,46.902402479979315,0)"
           xlink:href="#as"
           id="use501" />
        <use
           transform="matrix(0.026246447946267105,0,0,0.026246447946267105,53.75272539395503,0)"
           xlink:href="#av"
           id="use503" />
        <use
           transform="matrix(0.026246447946267105,0,0,0.026246447946267105,69.05440454662876,0)"
           xlink:href="#be"
           id="use505" />
        <use
           transform="matrix(0.026246447946267105,0,0,0.026246447946267105,83.3062257814518,0)"
           xlink:href="#bf"
           id="use507" />
        <use
           transform="matrix(0.026246447946267105,0,0,0.026246447946267105,106.90178248514593,0)"
           xlink:href="#ax"
           id="use509" />
        <use
           transform="matrix(0.026246447946267105,0,0,0.026246447946267105,121.28483595970029,0)"
           xlink:href="#ap"
           id="use511" />
        <use
           transform="matrix(0.026246447946267105,0,0,0.026246447946267105,137.11144407129936,0)"
           xlink:href="#ao"
           id="use513" />
      </g>
      <path
         d="M150-189v-367l328 183"
         id="bg" />
      <use
         transform="matrix(0.026246447946267105,0,0,0.026246447946267105,0,0)"
         xlink:href="#bg"
         id="x" />
      <path
         d="M260 0v-642H12v-70h579v70H343V0h-83"
         id="bh" />
      <path
         d="M286 7C132 7 48-97 48-254s84-261 238-261 238 104 238 261S440 7 286 7zm0-67c108-1 156-78 155-194 1-112-50-192-155-193-106 1-157 80-156 193-1 116 48 193 156 194"
         id="bi" />
      <path
         d="M78 0v-736h81V0H78"
         id="bj" />
      <path
         d="M445-136C448 40 141 38 47-58l27-60c50 38 96 59 177 60 66 0 116-18 116-76 0-81-105-78-171-96-71-19-130-58-132-136-6-170 279-189 372-83l-27 59c-47-39-98-59-152-59-63-1-111 22-113 78 0 82 98 79 163 98 79 23 135 51 138 137"
         id="bk" />
      <g
         id="y">
        <use
           transform="matrix(0.026246447946267105,0,0,0.026246447946267105,0,0)"
           xlink:href="#bh"
           id="use522" />
        <use
           transform="matrix(0.026246447946267105,0,0,0.026246447946267105,13.805631619736497,0)"
           xlink:href="#bi"
           id="use524" />
        <use
           transform="matrix(0.026246447946267105,0,0,0.026246447946267105,28.81859984500128,0)"
           xlink:href="#bi"
           id="use526" />
        <use
           transform="matrix(0.026246447946267105,0,0,0.026246447946267105,43.831568070266066,0)"
           xlink:href="#bj"
           id="use528" />
        <use
           transform="matrix(0.026246447946267105,0,0,0.026246447946267105,50.07822268147764,0)"
           xlink:href="#bk"
           id="use530" />
      </g>
      <path
         d="M218 182C147 47 104-80 104-266c0-183 45-314 114-446h68c-62 144-98 265-98 446 0 180 37 303 97 448h-67"
         id="bl" />
      <path
         d="M693-712h68V0h-76v-529L454 0h-58L163-525l1 525H88v-712h68L426-98"
         id="bm" />
      <path
         d="M155-413c27-61 90-102 174-102 121 0 181 66 181 199V0h-81v-312c0-89-31-134-116-135-93-1-154 64-154 159V0H78c-3-166 7-350-8-503h77"
         id="bn" />
      <path
         d="M147-357c-1 183 82 295 258 296 59 0 116-9 171-28v-217H399v-65h252v330C595-11 491 9 403 8 179 4 62-130 62-357c0-223 115-359 335-363 107 0 190 34 245 90l-32 63c-62-51-113-81-213-83-170 1-252 115-250 293"
         id="bo" />
      <path
         d="M285-515c143 0 221 107 214 261H130c1 121 54 193 171 194 59 0 113-20 162-59l27 59C451-22 375 7 300 7 143 9 46-95 48-253c3-155 86-262 237-262zm141 208c-7-88-50-144-140-145-91 1-140 61-153 145h293"
         id="bp" />
      <path
         d="M167-103c5 99-5 170-61 218L68 86c26-30 41-59 44-86H64v-103h103"
         id="bq" />
      <g
         id="z">
        <use
           transform="matrix(0.026246447946267105,0,0,0.026246447946267105,0,0)"
           xlink:href="#bl"
           id="use539" />
        <use
           transform="matrix(0.026246447946267105,0,0,0.026246447946267105,8.320123998966672,0)"
           xlink:href="#bm"
           id="use541" />
        <use
           transform="matrix(0.026246447946267105,0,0,0.026246447946267105,30.603358305347445,0)"
           xlink:href="#bi"
           id="use543" />
        <use
           transform="matrix(0.026246447946267105,0,0,0.026246447946267105,45.61632653061223,0)"
           xlink:href="#bi"
           id="use545" />
        <use
           transform="matrix(0.026246447946267105,0,0,0.026246447946267105,60.62929475587701,0)"
           xlink:href="#bn"
           id="use547" />
        <use
           transform="matrix(0.026246447946267105,0,0,0.026246447946267105,75.98346680444327,0)"
           xlink:href="#bo"
           id="use549" />
        <use
           transform="matrix(0.026246447946267105,0,0,0.026246447946267105,95.16962025316452,0)"
           xlink:href="#bp"
           id="use551" />
        <use
           transform="matrix(0.026246447946267105,0,0,0.026246447946267105,109.44768793593383,0)"
           xlink:href="#bn"
           id="use553" />
        <use
           transform="matrix(0.026246447946267105,0,0,0.026246447946267105,124.80185998450008,0)"
           xlink:href="#bq"
           id="use555" />
      </g>
      <path
         d="M997-712h81L829 0h-70L556-583 352 0h-69L33-712h84l202 595 207-595 63 1 204 596"
         id="br" />
      <path
         d="M78 0v-503h81V0H78zm-8-716h99v92H70v-92"
         id="bs" />
      <path
         d="M155-410c24-74 106-122 203-99l-2 74c-114-36-197 41-197 148V0H78c-3-166 7-350-8-503h77"
         id="bt" />
      <path
         d="M577-193C571-53 461 6 314 8 203 8 114-22 48-82l31-63c66 55 125 82 236 83 101 1 179-36 179-128 0-93-93-97-179-121-131-32-247-54-254-203-11-241 378-256 505-116l-32 63c-59-50-116-81-214-83-99-1-177 42-177 133 0 94 76 101 167 128 108 29 171 36 232 97 23 25 35 58 35 99"
         id="bu" />
      <path
         d="M159-421c29-57 89-94 170-94 121 0 181 66 181 199V0h-81v-312c0-89-31-134-116-135-93-1-154 64-154 159V0H78v-736h81v315"
         id="bv" />
      <path
         d="M271-515c83 0 142 41 170 99v-87h80V0h-80v-91C414-32 354 7 271 7 123 2 48-100 48-252s76-257 223-263zm16 455c107-1 155-80 154-194 1-114-47-192-154-193-106 1-158 82-157 195-1 113 50 191 157 192"
         id="bw" />
      <path
         d="M523 0H417L159-242V0H78v-736h81v464l237-230h103L247-261"
         id="bx" />
      <path
         d="M213-266c0 186-44 313-114 448H32c60-146 97-268 97-448S93-568 32-712h68c70 133 113 263 113 446"
         id="by" />
      <g
         id="A">
        <use
           transform="matrix(0.026246447946267105,0,0,0.026246447946267105,0,0)"
           xlink:href="#br"
           id="use566" />
        <use
           transform="matrix(0.026246447946267105,0,0,0.026246447946267105,29.18605011624902,0)"
           xlink:href="#bs"
           id="use568" />
        <use
           transform="matrix(0.026246447946267105,0,0,0.026246447946267105,35.43270472746059,0)"
           xlink:href="#bt"
           id="use570" />
        <use
           transform="matrix(0.026246447946267105,0,0,0.026246447946267105,44.67145440454661,0)"
           xlink:href="#bp"
           id="use572" />
        <use
           transform="matrix(0.026246447946267105,0,0,0.026246447946267105,58.949522087315906,0)"
           xlink:href="#bu"
           id="use574" />
        <use
           transform="matrix(0.026246447946267105,0,0,0.026246447946267105,75.30105915784031,0)"
           xlink:href="#bv"
           id="use576" />
        <use
           transform="matrix(0.026246447946267105,0,0,0.026246447946267105,90.65523120640657,0)"
           xlink:href="#bw"
           id="use578" />
        <use
           transform="matrix(0.026246447946267105,0,0,0.026246447946267105,106.40309997416684,0)"
           xlink:href="#bt"
           id="use580" />
        <use
           transform="matrix(0.026246447946267105,0,0,0.026246447946267105,115.90431413071553,0)"
           xlink:href="#bx"
           id="use582" />
        <use
           transform="matrix(0.026246447946267105,0,0,0.026246447946267105,129.4212348230431,0)"
           xlink:href="#by"
           id="use584" />
      </g>
      <path
         d="M271-515c82 0 142 39 169 97v-318h81V0h-80v-91C414-32 354 7 271 7 124 1 48-104 48-256s76-254 223-259zm16 455c107-1 155-80 154-194 1-113-48-192-154-193-105 1-159 79-157 191-1 114 51 195 157 196"
         id="bz" />
      <g
         id="B">
        <use
           transform="matrix(0.026246447946267105,0,0,0.026246447946267105,0,0)"
           xlink:href="#bz"
           id="use588" />
        <use
           transform="matrix(0.026246447946267105,0,0,0.026246447946267105,15.747868767760263,0)"
           xlink:href="#bi"
           id="use590" />
      </g>
      <path
         d="M581-712h78V0h-64L165-573V0H88v-712h63l430 573v-573"
         id="bA" />
      <path
         d="M386 8C171 8 62-138 62-356c0-220 108-364 324-364 215 0 324 144 324 363S601 8 386 8zm0-70c162-1 241-122 239-295 2-174-76-292-239-293-162 1-242 121-240 293-2 173 77 294 240 295"
         id="bB" />
      <g
         id="C">
        <use
           transform="matrix(0.026246447946267105,0,0,0.026246447946267105,0,0)"
           xlink:href="#bA"
           id="use595" />
        <use
           transform="matrix(0.026246447946267105,0,0,0.026246447946267105,19.57985016791526,0)"
           xlink:href="#bB"
           id="use597" />
        <use
           transform="matrix(0.026246447946267105,0,0,0.026246447946267105,38.68726427279771,0)"
           xlink:href="#bh"
           id="use599" />
      </g>
      <path
         d="M269-61c90 1 149-67 149-158v-284h81V0h-79v-87C392-31 335 6 256 7 133 7 74-65 75-191v-312h81v310c0 86 32 131 113 132"
         id="bC" />
      <path
         d="M329-515c148 6 224 111 224 263S477 2 329 7C245 7 187-34 159-93v309H78c-4-238 9-494-8-719h77l8 97c25-65 87-109 174-109zM314-60c106-1 156-79 155-192 1-112-50-194-155-195-108 1-156 79-155 193-1 114 47 193 155 194"
         id="bD" />
      <path
         d="M328-3C207 32 105-24 105-153v-286H7v-64h98v-129l81-29v158h144v64H186v275c-9 91 65 116 142 92v69"
         id="bE" />
      <g
         id="D">
        <use
           transform="matrix(0.026246447946267105,0,0,0.026246447946267105,0,0)"
           xlink:href="#bk"
           id="use605" />
        <use
           transform="matrix(0.026246447946267105,0,0,0.026246447946267105,13.018238181348485,0)"
           xlink:href="#bC"
           id="use607" />
        <use
           transform="matrix(0.026246447946267105,0,0,0.026246447946267105,28.162438646344604,0)"
           xlink:href="#bD"
           id="use609" />
        <use
           transform="matrix(0.026246447946267105,0,0,0.026246447946267105,43.910307414104864,0)"
           xlink:href="#bD"
           id="use611" />
        <use
           transform="matrix(0.026246447946267105,0,0,0.026246447946267105,59.65817618186513,0)"
           xlink:href="#bi"
           id="use613" />
        <use
           transform="matrix(0.026246447946267105,0,0,0.026246447946267105,74.67114440712992,0)"
           xlink:href="#bt"
           id="use615" />
        <use
           transform="matrix(0.026246447946267105,0,0,0.026246447946267105,85.19597003358302,0)"
           xlink:href="#bE"
           id="use617" />
      </g>
      <path
         d="M762-503h80L656 0h-78L434-393 291 0h-78L27-503h85L254-97l147-406h71L617-96"
         id="bF" />
      <g
         id="E">
        <use
           transform="matrix(0.026246447946267105,0,0,0.026246447946267105,0,0)"
           xlink:href="#bn"
           id="use621" />
        <use
           transform="matrix(0.026246447946267105,0,0,0.026246447946267105,15.354172048566257,0)"
           xlink:href="#bp"
           id="use623" />
        <use
           transform="matrix(0.026246447946267105,0,0,0.026246447946267105,29.47476104365796,0)"
           xlink:href="#bF"
           id="use625" />
      </g>
      <path
         d="M90-187L65-712h101l-26 525H90zm-26 84h103V0H64v-103"
         id="bG" />
      <g
         id="F">
        <use
           transform="matrix(0.026246447946267105,0,0,0.026246447946267105,0,0)"
           xlink:href="#bv"
           id="use629" />
        <use
           transform="matrix(0.026246447946267105,0,0,0.026246447946267105,15.354172048566257,0)"
           xlink:href="#bp"
           id="use631" />
        <use
           transform="matrix(0.026246447946267105,0,0,0.026246447946267105,29.632239731335563,0)"
           xlink:href="#bw"
           id="use633" />
        <use
           transform="matrix(0.026246447946267105,0,0,0.026246447946267105,45.380108499095826,0)"
           xlink:href="#bz"
           id="use635" />
        <use
           transform="matrix(0.026246447946267105,0,0,0.026246447946267105,61.127977266856085,0)"
           xlink:href="#bp"
           id="use637" />
        <use
           transform="matrix(0.026246447946267105,0,0,0.026246447946267105,75.4060449496254,0)"
           xlink:href="#bt"
           id="use639" />
        <use
           transform="matrix(0.026246447946267105,0,0,0.026246447946267105,84.77602686644275,0)"
           xlink:href="#bk"
           id="use641" />
        <use
           transform="matrix(0.026246447946267105,0,0,0.026246447946267105,97.79426504779123,0)"
           xlink:href="#bG"
           id="use643" />
      </g>
      <g
         id="G">
        <use
           transform="matrix(0.026246447946267105,0,0,0.026246447946267105,0,0)"
           xlink:href="#bn"
           id="use646" />
        <use
           transform="matrix(0.026246447946267105,0,0,0.026246447946267105,15.354172048566257,0)"
           xlink:href="#bp"
           id="use648" />
        <use
           transform="matrix(0.026246447946267105,0,0,0.026246447946267105,29.632239731335563,0)"
           xlink:href="#bp"
           id="use650" />
        <use
           transform="matrix(0.026246447946267105,0,0,0.026246447946267105,43.91030741410487,0)"
           xlink:href="#bz"
           id="use652" />
      </g>
      <path
         d="M85-432L63-712h96l-20 280H85zm202 0l-22-280h96l-20 280h-54"
         id="bH" />
      <path
         d="M273-515c84 0 144 40 172 99v-87h81V-4c0 149-78 227-227 227-77 0-143-17-198-52l14-66c58 32 103 50 184 51 99 0 147-53 147-153v-119C418-56 359-15 273-15 128-19 48-117 48-265s80-246 225-250zm16 432c102 0 158-76 156-182 2-106-54-182-156-182s-161 75-159 182c-2 107 56 182 159 182"
         id="bI" />
      <g
         id="H">
        <use
           transform="matrix(0.026246447946267105,0,0,0.026246447946267105,0,0)"
           xlink:href="#bH"
           id="use657" />
        <use
           transform="matrix(0.026246447946267105,0,0,0.026246447946267105,11.128493929217253,0)"
           xlink:href="#bD"
           id="use659" />
        <use
           transform="matrix(0.026246447946267105,0,0,0.026246447946267105,26.876362696977516,0)"
           xlink:href="#bj"
           id="use661" />
        <use
           transform="matrix(0.026246447946267105,0,0,0.026246447946267105,33.12301730818909,0)"
           xlink:href="#bC"
           id="use663" />
        <use
           transform="matrix(0.026246447946267105,0,0,0.026246447946267105,48.26721777318521,0)"
           xlink:href="#bI"
           id="use665" />
        <use
           transform="matrix(0.026246447946267105,0,0,0.026246447946267105,64.12007233273054,0)"
           xlink:href="#bs"
           id="use667" />
        <use
           transform="matrix(0.026246447946267105,0,0,0.026246447946267105,70.36672694394211,0)"
           xlink:href="#bn"
           id="use669" />
      </g>
      <path
         d="M289 7C134 3 52-95 48-252c-5-193 154-307 344-246 32 12 57 28 78 49l-27 60c-43-33-81-56-146-58-108 0-167 81-165 195-1 114 56 192 165 192 64-2 103-25 146-58l27 60C432-21 362 7 289 7"
         id="bJ" />
      <path
         d="M100-432v-280h96l-42 280h-54zm202 0v-280h96l-42 280h-54"
         id="bK" />
      <g
         id="I">
        <use
           transform="matrix(0.026246447946267105,0,0,0.026246447946267105,0,0)"
           xlink:href="#bJ"
           id="use674" />
        <use
           transform="matrix(0.026246447946267105,0,0,0.026246447946267105,12.991991733402218,0)"
           xlink:href="#bi"
           id="use676" />
        <use
           transform="matrix(0.026246447946267105,0,0,0.026246447946267105,28.004959958667,0)"
           xlink:href="#bz"
           id="use678" />
        <use
           transform="matrix(0.026246447946267105,0,0,0.026246447946267105,43.75282872642727,0)"
           xlink:href="#bp"
           id="use680" />
        <use
           transform="matrix(0.026246447946267105,0,0,0.026246447946267105,58.03089640919657,0)"
           xlink:href="#bK"
           id="use682" />
      </g>
      <path
         d="M685-357C687-131 553 0 327 0H88v-712h239c226-2 360 129 358 355zM322-70c186 0 277-99 277-287 0-190-92-285-277-285H170v572h152"
         id="bL" />
      <g
         id="J">
        <use
           transform="matrix(0.026246447946267105,0,0,0.026246447946267105,0,0)"
           xlink:href="#bL"
           id="use686" />
        <use
           transform="matrix(0.026246447946267105,0,0,0.026246447946267105,19.57985016791526,0)"
           xlink:href="#bp"
           id="use688" />
        <use
           transform="matrix(0.026246447946267105,0,0,0.026246447946267105,33.857917850684565,0)"
           xlink:href="#bk"
           id="use690" />
        <use
           transform="matrix(0.026246447946267105,0,0,0.026246447946267105,46.87615603203305,0)"
           xlink:href="#bs"
           id="use692" />
        <use
           transform="matrix(0.026246447946267105,0,0,0.026246447946267105,53.12281064324462,0)"
           xlink:href="#bI"
           id="use694" />
        <use
           transform="matrix(0.026246447946267105,0,0,0.026246447946267105,68.97566520278995,0)"
           xlink:href="#bn"
           id="use696" />
        <use
           transform="matrix(0.026246447946267105,0,0,0.026246447946267105,84.32983725135621,0)"
           xlink:href="#bk"
           id="use698" />
      </g>
      <use
         transform="matrix(0.026246447946267105,0,0,0.026246447946267105,0,0)"
         xlink:href="#bw"
         id="K" />
      <g
         id="L">
        <use
           transform="matrix(0.026246447946267105,0,0,0.026246447946267105,0,0)"
           xlink:href="#bD"
           id="use702" />
        <use
           transform="matrix(0.026246447946267105,0,0,0.026246447946267105,15.747868767760263,0)"
           xlink:href="#bt"
           id="use704" />
        <use
           transform="matrix(0.026246447946267105,0,0,0.026246447946267105,24.986618444846282,0)"
           xlink:href="#bi"
           id="use706" />
        <use
           transform="matrix(0.026246447946267105,0,0,0.026246447946267105,39.9733402221648,0)"
           xlink:href="#bE"
           id="use708" />
        <use
           transform="matrix(0.026246447946267105,0,0,0.026246447946267105,49.159597003358286,0)"
           xlink:href="#bi"
           id="use710" />
        <use
           transform="matrix(0.026246447946267105,0,0,0.026246447946267105,64.17256522862307,0)"
           xlink:href="#bJ"
           id="use712" />
        <use
           transform="matrix(0.026246447946267105,0,0,0.026246447946267105,77.16455696202529,0)"
           xlink:href="#bi"
           id="use714" />
        <use
           transform="matrix(0.026246447946267105,0,0,0.026246447946267105,92.17752518729007,0)"
           xlink:href="#bj"
           id="use716" />
      </g>
      <g
         id="M">
        <use
           transform="matrix(0.026246447946267105,0,0,0.026246447946267105,0,0)"
           xlink:href="#br"
           id="use719" />
        <use
           transform="matrix(0.026246447946267105,0,0,0.026246447946267105,27.690002583311795,0)"
           xlink:href="#bt"
           id="use721" />
        <use
           transform="matrix(0.026246447946267105,0,0,0.026246447946267105,37.19121673986049,0)"
           xlink:href="#bs"
           id="use723" />
        <use
           transform="matrix(0.026246447946267105,0,0,0.026246447946267105,43.43787135107206,0)"
           xlink:href="#bE"
           id="use725" />
        <use
           transform="matrix(0.026246447946267105,0,0,0.026246447946267105,52.62412813226555,0)"
           xlink:href="#bp"
           id="use727" />
        <use
           transform="matrix(0.026246447946267105,0,0,0.026246447946267105,66.90219581503486,0)"
           xlink:href="#bk"
           id="use729" />
      </g>
      <path
         d="M605-513c0 130-97 200-233 200H170V0H88v-712h284c137-2 233 69 233 199zm-81 0c-1-92-61-132-159-131H170v263h195c98 1 158-40 159-132"
         id="bM" />
      <path
         d="M567-223v68H459V0h-82v-155H49v-62l343-495h67v489h108zm-433 0h243v-350"
         id="bN" />
      <g
         id="N">
        <use
           transform="matrix(0.026246447946267105,0,0,0.026246447946267105,0,0)"
           xlink:href="#bM"
           id="use734" />
        <use
           transform="matrix(0.026246447946267105,0,0,0.026246447946267105,17.086437613019886,0)"
           xlink:href="#bN"
           id="use736" />
      </g>
      <g
         id="O">
        <use
           transform="matrix(0.026246447946267105,0,0,0.026246447946267105,0,0)"
           xlink:href="#bJ"
           id="use739" />
        <use
           transform="matrix(0.026246447946267105,0,0,0.026246447946267105,12.991991733402218,0)"
           xlink:href="#bi"
           id="use741" />
        <use
           transform="matrix(0.026246447946267105,0,0,0.026246447946267105,28.004959958667,0)"
           xlink:href="#bz"
           id="use743" />
        <use
           transform="matrix(0.026246447946267105,0,0,0.026246447946267105,43.75282872642727,0)"
           xlink:href="#bp"
           id="use745" />
      </g>
      <path
         d="M392 8C174 3 62-136 62-357s113-358 330-363c106 1 187 34 242 90l-31 63c-60-51-112-80-210-82-165 1-248 118-246 292-2 175 79 293 246 294 98-2 150-31 210-82l31 63C579-26 498 7 392 8"
         id="bO" />
      <path
         d="M468-417c27-55 89-98 168-98 111 0 167 66 167 199V0h-81v-312c-1-87-23-133-104-135-89 0-136 68-136 160V0h-81v-312c-1-86-24-133-105-135-89 0-137 68-137 160V0H78c-3-166 7-350-8-503h77l8 88c25-59 80-99 159-100 84 1 131 34 154 98"
         id="bP" />
      <g
         id="P">
        <use
           transform="matrix(0.026246447946267105,0,0,0.026246447946267105,0,0)"
           xlink:href="#bO"
           id="use750" />
        <use
           transform="matrix(0.026246447946267105,0,0,0.026246447946267105,17.690105915784027,0)"
           xlink:href="#bi"
           id="use752" />
        <use
           transform="matrix(0.026246447946267105,0,0,0.026246447946267105,32.70307414104881,0)"
           xlink:href="#bP"
           id="use754" />
        <use
           transform="matrix(0.026246447946267105,0,0,0.026246447946267105,55.7737018858176,0)"
           xlink:href="#bD"
           id="use756" />
        <use
           transform="matrix(0.026246447946267105,0,0,0.026246447946267105,71.52157065357785,0)"
           xlink:href="#bs"
           id="use758" />
        <use
           transform="matrix(0.026246447946267105,0,0,0.026246447946267105,77.76822526478942,0)"
           xlink:href="#bj"
           id="use760" />
        <use
           transform="matrix(0.026246447946267105,0,0,0.026246447946267105,84.01487987600099,0)"
           xlink:href="#bp"
           id="use762" />
        <use
           transform="matrix(0.026246447946267105,0,0,0.026246447946267105,98.2929475587703,0)"
           xlink:href="#bk"
           id="use764" />
      </g>
      <g
         id="Q">
        <use
           transform="matrix(0.026246447946267105,0,0,0.026246447946267105,0,0)"
           xlink:href="#bw"
           id="use767" />
        <use
           transform="matrix(0.026246447946267105,0,0,0.026246447946267105,15.747868767760263,0)"
           xlink:href="#bn"
           id="use769" />
        <use
           transform="matrix(0.026246447946267105,0,0,0.026246447946267105,31.10204081632652,0)"
           xlink:href="#bz"
           id="use771" />
      </g>
      <path
         d="M520-503L285 46C239 154 175 202 54 227l-17-63C150 144 188 90 225-5L12-503h85L267-88l172-415h81"
         id="bQ" />
      <g
         id="R">
        <use
           transform="matrix(0.026246447946267105,0,0,0.026246447946267105,0,0)"
           xlink:href="#bz"
           id="use775" />
        <use
           transform="matrix(0.026246447946267105,0,0,0.026246447946267105,15.747868767760263,0)"
           xlink:href="#bp"
           id="use777" />
        <use
           transform="matrix(0.026246447946267105,0,0,0.026246447946267105,30.025936450529567,0)"
           xlink:href="#bD"
           id="use779" />
        <use
           transform="matrix(0.026246447946267105,0,0,0.026246447946267105,45.77380521828984,0)"
           xlink:href="#bj"
           id="use781" />
        <use
           transform="matrix(0.026246447946267105,0,0,0.026246447946267105,52.020459829501405,0)"
           xlink:href="#bi"
           id="use783" />
        <use
           transform="matrix(0.026246447946267105,0,0,0.026246447946267105,66.87594936708858,0)"
           xlink:href="#bQ"
           id="use785" />
        <use
           transform="matrix(0.026246447946267105,0,0,0.026246447946267105,80.57659519504001,0)"
           xlink:href="#bk"
           id="use787" />
      </g>
      <g
         id="S">
        <use
           transform="matrix(0.026246447946267105,0,0,0.026246447946267105,0,0)"
           xlink:href="#bE"
           id="use790" />
        <use
           transform="matrix(0.026246447946267105,0,0,0.026246447946267105,9.186256781193487,0)"
           xlink:href="#bi"
           id="use792" />
      </g>
      <g
         id="T">
        <use
           transform="matrix(0.026246447946267105,0,0,0.026246447946267105,0,0)"
           xlink:href="#bn"
           id="use795" />
        <use
           transform="matrix(0.026246447946267105,0,0,0.026246447946267105,15.354172048566257,0)"
           xlink:href="#bp"
           id="use797" />
        <use
           transform="matrix(0.026246447946267105,0,0,0.026246447946267105,29.55350038749676,0)"
           xlink:href="#bE"
           id="use799" />
        <use
           transform="matrix(0.026246447946267105,0,0,0.026246447946267105,38.89723585636785,0)"
           xlink:href="#bF"
           id="use801" />
        <use
           transform="matrix(0.026246447946267105,0,0,0.026246447946267105,61.54792043399636,0)"
           xlink:href="#bi"
           id="use803" />
        <use
           transform="matrix(0.026246447946267105,0,0,0.026246447946267105,76.56088865926114,0)"
           xlink:href="#bt"
           id="use805" />
        <use
           transform="matrix(0.026246447946267105,0,0,0.026246447946267105,86.06210281580982,0)"
           xlink:href="#bx"
           id="use807" />
      </g>
      <g
         id="U">
        <use
           transform="matrix(0.026246447946267105,0,0,0.026246447946267105,0,0)"
           xlink:href="#bv"
           id="use810" />
        <use
           transform="matrix(0.026246447946267105,0,0,0.026246447946267105,15.354172048566257,0)"
           xlink:href="#bw"
           id="use812" />
        <use
           transform="matrix(0.026246447946267105,0,0,0.026246447946267105,31.10204081632652,0)"
           xlink:href="#bt"
           id="use814" />
        <use
           transform="matrix(0.026246447946267105,0,0,0.026246447946267105,40.34079049341254,0)"
           xlink:href="#bz"
           id="use816" />
        <use
           transform="matrix(0.026246447946267105,0,0,0.026246447946267105,56.08865926117281,0)"
           xlink:href="#bF"
           id="use818" />
        <use
           transform="matrix(0.026246447946267105,0,0,0.026246447946267105,78.73934383880132,0)"
           xlink:href="#bw"
           id="use820" />
        <use
           transform="matrix(0.026246447946267105,0,0,0.026246447946267105,94.48721260656158,0)"
           xlink:href="#bt"
           id="use822" />
        <use
           transform="matrix(0.026246447946267105,0,0,0.026246447946267105,103.72596228364762,0)"
           xlink:href="#bp"
           id="use824" />
      </g>
      <path
         d="M669-712h102V0H657v-442L468 0h-85L193-437V0H79v-712h102l245 557"
         id="bR" />
      <path
         d="M264-518c77 0 136 37 164 89v-76h123V0H428v-81C400-29 341 8 264 8 116 3 40-100 40-252s77-260 224-266zm34 428c89-1 131-69 130-164 1-98-40-165-131-166-89 1-132 72-131 168-1 96 42 161 132 162"
         id="bS" />
      <g
         id="V">
        <use
           transform="matrix(0.026246447946267105,0,0,0.026246447946267105,0,0)"
           xlink:href="#bR"
           id="use829" />
        <use
           transform="matrix(0.026246447946267105,0,0,0.026246447946267105,22.30948075432704,0)"
           xlink:href="#bS"
           id="use831" />
        <use
           transform="matrix(0.026246447946267105,0,0,0.026246447946267105,38.55603203306638,0)"
           xlink:href="#an"
           id="use833" />
        <use
           transform="matrix(0.026246447946267105,0,0,0.026246447946267105,45.4063549470421,0)"
           xlink:href="#ap"
           id="use835" />
        <use
           transform="matrix(0.026246447946267105,0,0,0.026246447946267105,61.232963058641154,0)"
           xlink:href="#ao"
           id="use837" />
        <use
           transform="matrix(0.026246447946267105,0,0,0.026246447946267105,71.1803668302764,0)"
           xlink:href="#bS"
           id="use839" />
        <use
           transform="matrix(0.026246447946267105,0,0,0.026246447946267105,87.42691810901573,0)"
           xlink:href="#an"
           id="use841" />
        <use
           transform="matrix(0.026246447946267105,0,0,0.026246447946267105,94.27724102299145,0)"
           xlink:href="#ap"
           id="use843" />
        <use
           transform="matrix(0.026246447946267105,0,0,0.026246447946267105,110.1038491345905,0)"
           xlink:href="#an"
           id="use845" />
        <use
           transform="matrix(0.026246447946267105,0,0,0.026246447946267105,116.95417204856625,0)"
           xlink:href="#ap"
           id="use847" />
        <use
           transform="matrix(0.026246447946267105,0,0,0.026246447946267105,132.7807801601653,0)"
           xlink:href="#aq"
           id="use849" />
      </g>
      <use
         transform="matrix(0.026246447946267105,0,0,0.026246447946267105,0,0)"
         xlink:href="#bg"
         id="W" />
      <path
         d="M632 0l-78-183H182L103 0H18l313-712h72L716 0h-84zM211-251h314L368-617"
         id="bT" />
      <g
         id="X">
        <use
           transform="matrix(0.026246447946267105,0,0,0.026246447946267105,0,0)"
           xlink:href="#bT"
           id="use854" />
        <use
           transform="matrix(0.026246447946267105,0,0,0.026246447946267105,19.10741410488245,0)"
           xlink:href="#bk"
           id="use856" />
      </g>
      <g
         id="Y">
        <use
           transform="matrix(0.026246447946267105,0,0,0.026246447946267105,0,0)"
           xlink:href="#bD"
           id="use859" />
        <use
           transform="matrix(0.026246447946267105,0,0,0.026246447946267105,15.747868767760263,0)"
           xlink:href="#bt"
           id="use861" />
        <use
           transform="matrix(0.026246447946267105,0,0,0.026246447946267105,24.986618444846282,0)"
           xlink:href="#bi"
           id="use863" />
        <use
           transform="matrix(0.026246447946267105,0,0,0.026246447946267105,39.9733402221648,0)"
           xlink:href="#bE"
           id="use865" />
        <use
           transform="matrix(0.026246447946267105,0,0,0.026246447946267105,49.159597003358286,0)"
           xlink:href="#bi"
           id="use867" />
        <use
           transform="matrix(0.026246447946267105,0,0,0.026246447946267105,64.17256522862307,0)"
           xlink:href="#bJ"
           id="use869" />
        <use
           transform="matrix(0.026246447946267105,0,0,0.026246447946267105,77.16455696202529,0)"
           xlink:href="#bi"
           id="use871" />
        <use
           transform="matrix(0.026246447946267105,0,0,0.026246447946267105,92.17752518729007,0)"
           xlink:href="#bj"
           id="use873" />
      </g>
      <path
         d="M439-502h81L303 0h-77L12-502h85L267-88"
         id="bU" />
      <g
         id="Z">
        <use
           transform="matrix(0.026246447946267105,0,0,0.026246447946267105,0,0)"
           xlink:href="#bp"
           id="use877" />
        <use
           transform="matrix(0.026246447946267105,0,0,0.026246447946267105,14.120588995091703,0)"
           xlink:href="#bU"
           id="use879" />
        <use
           transform="matrix(0.026246447946267105,0,0,0.026246447946267105,27.899974166881933,0)"
           xlink:href="#bi"
           id="use881" />
        <use
           transform="matrix(0.026246447946267105,0,0,0.026246447946267105,42.91294239214672,0)"
           xlink:href="#bj"
           id="use883" />
        <use
           transform="matrix(0.026246447946267105,0,0,0.026246447946267105,49.159597003358286,0)"
           xlink:href="#bU"
           id="use885" />
        <use
           transform="matrix(0.026246447946267105,0,0,0.026246447946267105,62.93898217514852,0)"
           xlink:href="#bp"
           id="use887" />
        <use
           transform="matrix(0.026246447946267105,0,0,0.026246447946267105,77.21704985791783,0)"
           xlink:href="#bk"
           id="use889" />
        <use
           transform="matrix(0.026246447946267105,0,0,0.026246447946267105,90.23528803926631,0)"
           xlink:href="#bq"
           id="use891" />
      </g>
      <g
         id="aa">
        <use
           transform="matrix(0.026246447946267105,0,0,0.026246447946267105,0,0)"
           xlink:href="#bE"
           id="use894" />
        <use
           transform="matrix(0.026246447946267105,0,0,0.026246447946267105,9.186256781193487,0)"
           xlink:href="#bv"
           id="use896" />
        <use
           transform="matrix(0.026246447946267105,0,0,0.026246447946267105,24.540428829759744,0)"
           xlink:href="#bp"
           id="use898" />
      </g>
      <g
         id="ab">
        <use
           transform="matrix(0.026246447946267105,0,0,0.026246447946267105,0,0)"
           xlink:href="#bv"
           id="use901" />
        <use
           transform="matrix(0.026246447946267105,0,0,0.026246447946267105,15.354172048566257,0)"
           xlink:href="#bp"
           id="use903" />
        <use
           transform="matrix(0.026246447946267105,0,0,0.026246447946267105,29.632239731335563,0)"
           xlink:href="#bw"
           id="use905" />
        <use
           transform="matrix(0.026246447946267105,0,0,0.026246447946267105,45.380108499095826,0)"
           xlink:href="#bz"
           id="use907" />
        <use
           transform="matrix(0.026246447946267105,0,0,0.026246447946267105,61.127977266856085,0)"
           xlink:href="#bp"
           id="use909" />
        <use
           transform="matrix(0.026246447946267105,0,0,0.026246447946267105,75.4060449496254,0)"
           xlink:href="#bt"
           id="use911" />
        <use
           transform="matrix(0.026246447946267105,0,0,0.026246447946267105,84.77602686644275,0)"
           xlink:href="#bk"
           id="use913" />
      </g>
      <g
         id="ac">
        <use
           transform="matrix(0.026246447946267105,0,0,0.026246447946267105,0,0)"
           xlink:href="#bJ"
           id="use916" />
        <use
           transform="matrix(0.026246447946267105,0,0,0.026246447946267105,12.991991733402218,0)"
           xlink:href="#bv"
           id="use918" />
        <use
           transform="matrix(0.026246447946267105,0,0,0.026246447946267105,28.346163781968475,0)"
           xlink:href="#bw"
           id="use920" />
        <use
           transform="matrix(0.026246447946267105,0,0,0.026246447946267105,44.09403254972874,0)"
           xlink:href="#bn"
           id="use922" />
        <use
           transform="matrix(0.026246447946267105,0,0,0.026246447946267105,59.44820459829499,0)"
           xlink:href="#bI"
           id="use924" />
        <use
           transform="matrix(0.026246447946267105,0,0,0.026246447946267105,75.30105915784033,0)"
           xlink:href="#bp"
           id="use926" />
      </g>
      <g
         id="ad">
        <use
           transform="matrix(0.026246447946267105,0,0,0.026246447946267105,0,0)"
           xlink:href="#bM"
           id="use929" />
        <use
           transform="matrix(0.026246447946267105,0,0,0.026246447946267105,17.086437613019886,0)"
           xlink:href="#bj"
           id="use931" />
        <use
           transform="matrix(0.026246447946267105,0,0,0.026246447946267105,23.333092224231457,0)"
           xlink:href="#bC"
           id="use933" />
        <use
           transform="matrix(0.026246447946267105,0,0,0.026246447946267105,38.477292689227575,0)"
           xlink:href="#bI"
           id="use935" />
        <use
           transform="matrix(0.026246447946267105,0,0,0.026246447946267105,54.33014724877291,0)"
           xlink:href="#bs"
           id="use937" />
        <use
           transform="matrix(0.026246447946267105,0,0,0.026246447946267105,60.57680185998447,0)"
           xlink:href="#bn"
           id="use939" />
      </g>
      <g
         id="ae">
        <use
           transform="matrix(0.026246447946267105,0,0,0.026246447946267105,0,0)"
           xlink:href="#bJ"
           id="use942" />
        <use
           transform="matrix(0.026246447946267105,0,0,0.026246447946267105,12.991991733402218,0)"
           xlink:href="#bi"
           id="use944" />
        <use
           transform="matrix(0.026246447946267105,0,0,0.026246447946267105,28.004959958667,0)"
           xlink:href="#bz"
           id="use946" />
        <use
           transform="matrix(0.026246447946267105,0,0,0.026246447946267105,43.75282872642727,0)"
           xlink:href="#bp"
           id="use948" />
      </g>
      <g
         id="af">
        <use
           transform="matrix(0.026246447946267105,0,0,0.026246447946267105,0,0)"
           xlink:href="#bn"
           id="use951" />
        <use
           transform="matrix(0.026246447946267105,0,0,0.026246447946267105,15.354172048566257,0)"
           xlink:href="#bp"
           id="use953" />
        <use
           transform="matrix(0.026246447946267105,0,0,0.026246447946267105,29.632239731335563,0)"
           xlink:href="#bp"
           id="use955" />
        <use
           transform="matrix(0.026246447946267105,0,0,0.026246447946267105,43.91030741410487,0)"
           xlink:href="#bz"
           id="use957" />
        <use
           transform="matrix(0.026246447946267105,0,0,0.026246447946267105,59.65817618186513,0)"
           xlink:href="#bk"
           id="use959" />
      </g>
      <g
         id="ag">
        <use
           transform="matrix(0.026246447946267105,0,0,0.026246447946267105,0,0)"
           xlink:href="#bE"
           id="use962" />
        <use
           transform="matrix(0.026246447946267105,0,0,0.026246447946267105,9.186256781193487,0)"
           xlink:href="#bi"
           id="use964" />
      </g>
      <path
         d="M329-515c147 5 224 107 224 259S477 1 329 7C245 7 187-34 159-93V0H78v-736h81v322c26-61 86-101 170-101zM314-60c105-1 156-83 155-196 1-112-49-190-155-191-108 1-156 79-155 193-1 114 47 193 155 194"
         id="bV" />
      <g
         id="ah">
        <use
           transform="matrix(0.026246447946267105,0,0,0.026246447946267105,0,0)"
           xlink:href="#bV"
           id="use968" />
        <use
           transform="matrix(0.026246447946267105,0,0,0.026246447946267105,15.747868767760263,0)"
           xlink:href="#bp"
           id="use970" />
      </g>
      <path
         d="M323-662c-77-23-144 3-137 92v67h123v64H186V0h-81v-439H7v-64h98v-77c-7-127 96-184 218-151v69"
         id="bW" />
      <g
         id="ai">
        <use
           transform="matrix(0.026246447946267105,0,0,0.026246447946267105,0,0)"
           xlink:href="#bP"
           id="use974" />
        <use
           transform="matrix(0.026246447946267105,0,0,0.026246447946267105,23.070627744768785,0)"
           xlink:href="#bi"
           id="use976" />
        <use
           transform="matrix(0.026246447946267105,0,0,0.026246447946267105,38.08359597003357,0)"
           xlink:href="#bz"
           id="use978" />
        <use
           transform="matrix(0.026246447946267105,0,0,0.026246447946267105,53.83146473779383,0)"
           xlink:href="#bs"
           id="use980" />
        <use
           transform="matrix(0.026246447946267105,0,0,0.026246447946267105,60.078119349005405,0)"
           xlink:href="#bW"
           id="use982" />
        <use
           transform="matrix(0.026246447946267105,0,0,0.026246447946267105,68.92317230689741,0)"
           xlink:href="#bs"
           id="use984" />
        <use
           transform="matrix(0.026246447946267105,0,0,0.026246447946267105,75.16982691810898,0)"
           xlink:href="#bp"
           id="use986" />
        <use
           transform="matrix(0.026246447946267105,0,0,0.026246447946267105,89.44789460087829,0)"
           xlink:href="#bz"
           id="use988" />
      </g>
      <g
         id="aj">
        <use
           transform="matrix(0.026246447946267105,0,0,0.026246447946267105,0,0)"
           xlink:href="#bp"
           id="use991" />
        <use
           transform="matrix(0.026246447946267105,0,0,0.026246447946267105,14.278067682769306,0)"
           xlink:href="#bw"
           id="use993" />
        <use
           transform="matrix(0.026246447946267105,0,0,0.026246447946267105,30.025936450529567,0)"
           xlink:href="#bJ"
           id="use995" />
        <use
           transform="matrix(0.026246447946267105,0,0,0.026246447946267105,43.01792818393179,0)"
           xlink:href="#bv"
           id="use997" />
      </g>
      <g
         id="ak">
        <use
           transform="matrix(0.026246447946267105,0,0,0.026246447946267105,0,0)"
           xlink:href="#bE"
           id="use1000" />
        <use
           transform="matrix(0.026246447946267105,0,0,0.026246447946267105,9.186256781193487,0)"
           xlink:href="#bs"
           id="use1002" />
        <use
           transform="matrix(0.026246447946267105,0,0,0.026246447946267105,15.432911392405058,0)"
           xlink:href="#bP"
           id="use1004" />
        <use
           transform="matrix(0.026246447946267105,0,0,0.026246447946267105,38.503539137173846,0)"
           xlink:href="#bp"
           id="use1006" />
      </g>
    </defs>
  </g>
</svg>
